<svg viewBox="0 0 200 200" xmlns="http://www.w3.org/2000/svg">
  <defs>
    <radialGradient id="grad1" cx="50%" cy="50%" r="50%">
      <stop offset="0%" style="stop-color:#8B5CF6;stop-opacity:1" />
      <stop offset="100%" style="stop-color:#6D28D9;stop-opacity:1" />
    </radialGradient>
  </defs>
  <circle cx="100" cy="100" r="100" fill="url(#grad1)"/>
  <!-- Left face profile -->
  <path d="M60 50 C50 45, 40 50, 40 65 C40 80, 45 90, 50 100 C55 115, 60 125, 70 135 C75 140, 80 142, 85 140 C90 138, 92 135, 90 130 C88 125, 85 120, 82 115 C80 110, 78 105, 76 100 C74 95, 72 90, 70 85 C68 75, 65 65, 60 50 Z" fill="white"/>
  <!-- Right face profile -->
  <path d="M140 50 C150 45, 160 50, 160 65 C160 80, 155 90, 150 100 C145 115, 140 125, 130 135 C125 140, 120 142, 115 140 C110 138, 108 135, 110 130 C112 125, 115 120, 118 115 C120 110, 122 105, 124 100 C126 95, 128 90, 130 85 C132 75, 135 65, 140 50 Z" fill="white"/>
</svg>